<svg viewBox="0 0 16 16" xmlns="http://www.w3.org/2000/svg">
  <!-- Head and Split Body Shell -->
  <path d="M5.7 4.5C5.9 3.4 6.9 2.5 8 2.5C9.1 2.5 10.1 3.4 10.3 4.5H5.7ZM7.5 5H5.5C3.5 5 3 7 3 9.5C3 12 3.5 14 5.5 14H7.5V5ZM8.5 5V14H10.5C12.5 14 13 12 13 9.5C13 7 12.5 5 10.5 5H8.5Z" fill="currentColor"/>
  <!-- Legs and Antennae -->
  <path d="M4.5 2L6 3.5M11.5 2L10 3.5M3.5 7L1.5 6M3 9.5H1M3.5 12L1.5 13M12.5 7L14.5 6M13 9.5H15M12.5 12L14.5 13" stroke="currentColor" stroke-width="1.5" stroke-linecap="round" fill="none"/>
</svg>